<svg viewBox="0 0 480 480" xmlns="http://www.w3.org/2000/svg" role="img" aria-label="Ветеринарный врач с питомцем">
  <defs><clipPath id="docClip"><rect width="480" height="480"/></clipPath></defs>
  <g clip-path="url(#docClip)">
    <rect width="480" height="480" fill="#E3F1F0"/>
    <circle cx="90" cy="100" r="54" fill="#FC5B3F" opacity="0.14"/>
    <circle cx="406" cy="120" r="34" fill="#0E8C8B" opacity="0.16"/>
    <circle cx="404" cy="394" r="58" fill="#6EB17E" opacity="0.16"/>
    <ellipse cx="240" cy="432" rx="180" ry="24" fill="#0E8C8B" opacity="0.10"/>

    <!-- vet: coat/body -->
    <path d="M150 440c0-62 38-104 90-104s90 42 90 104z" fill="#fff"/>
    <path d="M240 336c-26 0-42 18-50 40l50 24 50-24c-8-22-24-40-50-40z" fill="#E3F1F0"/>
    <!-- collar + stethoscope -->
    <path d="M214 344l26 22 26-22" fill="none" stroke="#0E8C8B" stroke-width="10" stroke-linecap="round"/>
    <path d="M222 350c-12 22-6 50 18 58" fill="none" stroke="#173E4C" stroke-width="7" stroke-linecap="round"/>
    <circle cx="244" cy="410" r="13" fill="#0E8C8B"/><circle cx="244" cy="410" r="6" fill="#fff"/>
    <!-- head -->
    <circle cx="240" cy="280" r="56" fill="#F2C39B"/>
    <!-- hair/cap -->
    <path d="M184 274c0-34 26-58 56-58s56 24 56 58c-18-10-38-14-56-14s-38 4-56 14z" fill="#173E4C"/>
    <!-- eyes + smile -->
    <circle cx="222" cy="280" r="5.5" fill="#173E4C"/>
    <circle cx="258" cy="280" r="5.5" fill="#173E4C"/>
    <path d="M226 300c8 8 20 8 28 0" fill="none" stroke="#173E4C" stroke-width="5" stroke-linecap="round"/>

    <!-- pet (cat) in arms -->
    <circle cx="318" cy="384" r="38" fill="#21586B"/>
    <path d="M292 360l8 22 16-16zM344 360l-8 22-16-16z" fill="#21586B"/>
    <ellipse cx="306" cy="382" rx="5" ry="7" fill="#6EB17E"/>
    <ellipse cx="330" cy="382" rx="5" ry="7" fill="#6EB17E"/>
    <path d="M314 396h8l-4 5z" fill="#FC8C7A"/>
    <path d="M302 388l-16-4M302 394l-16 2M334 388l16-4M334 394l16 2" stroke="#fff" stroke-width="2" stroke-linecap="round" opacity="0.8"/>

    <!-- floating heart -->
    <path d="M360 150c-3-7-15-7-15 3 0 7 15 16 15 16s15-9 15-16c0-10-12-10-15-3z" fill="#FC5B3F"/>
  </g>
</svg>
