<svg viewBox="0 0 480 480" xmlns="http://www.w3.org/2000/svg" role="img" aria-label="Запись на приём">
  <defs><clipPath id="apptClip"><rect width="480" height="480"/></clipPath></defs>
  <g clip-path="url(#apptClip)">
    <rect width="480" height="480" fill="#E3F1F0"/>
    <circle cx="92" cy="98" r="54" fill="#6EB17E" opacity="0.16"/>
    <circle cx="404" cy="120" r="34" fill="#E79819" opacity="0.18"/>
    <circle cx="402" cy="394" r="58" fill="#0E8C8B" opacity="0.14"/>
    <ellipse cx="240" cy="432" rx="170" ry="24" fill="#0E8C8B" opacity="0.10"/>

    <!-- calendar / clipboard -->
    <rect x="150" y="158" width="180" height="200" rx="22" fill="#fff"/>
    <rect x="150" y="158" width="180" height="44" rx="22" fill="#0E8C8B"/>
    <rect x="150" y="186" width="180" height="16" fill="#0E8C8B"/>
    <rect x="186" y="146" width="14" height="28" rx="7" fill="#173E4C"/>
    <rect x="280" y="146" width="14" height="28" rx="7" fill="#173E4C"/>
    <!-- grid dots -->
    <g fill="#E6EAE8">
      <circle cx="186" cy="232" r="8"/><circle cx="222" cy="232" r="8"/><circle cx="258" cy="232" r="8"/><circle cx="294" cy="232" r="8"/>
      <circle cx="186" cy="268" r="8"/><circle cx="222" cy="268" r="8"/>
    </g>
    <!-- selected day -->
    <circle cx="258" cy="268" r="14" fill="#6EB17E"/>
    <circle cx="294" cy="268" r="8" fill="#E6EAE8"/>
    <!-- big check -->
    <circle cx="240" cy="316" r="30" fill="#6EB17E"/>
    <path d="M227 316l9 9 18-18" fill="none" stroke="#fff" stroke-width="7" stroke-linecap="round" stroke-linejoin="round"/>

    <!-- paw badge -->
    <circle cx="346" cy="216" r="34" fill="#E79819"/>
    <circle cx="336" cy="206" r="4.5" fill="#fff"/><circle cx="348" cy="201" r="4.5" fill="#fff"/><circle cx="360" cy="206" r="4.5" fill="#fff"/>
    <path d="M334 222c0-6 5-10 12-10s12 4 12 10c0 5-5 7-12 7s-12-2-12-7z" fill="#fff"/>

    <!-- clock -->
    <circle cx="146" cy="300" r="30" fill="#fff" stroke="#0E8C8B" stroke-width="6"/>
    <path d="M146 286v14l9 6" fill="none" stroke="#173E4C" stroke-width="5" stroke-linecap="round"/>

    <!-- floating heart -->
    <path d="M150 150c-3-7-15-7-15 3 0 7 15 16 15 16s15-9 15-16c0-10-12-10-15-3z" fill="#FC5B3F"/>
  </g>
</svg>
